<?xml version="1.0" encoding="UTF-8"?>
<!DOCTYPE svg PUBLIC "-//W3C//DTD SVG 1.1//EN" "http://www.w3.org/Graphics/SVG/1.1/DTD/svg11.dtd">
<svg xmlns="http://www.w3.org/2000/svg" version="1.1" width="647px" height="183px" style="shape-rendering:geometricPrecision; text-rendering:geometricPrecision; image-rendering:optimizeQuality; fill-rule:evenodd; clip-rule:evenodd" xmlns:xlink="http://www.w3.org/1999/xlink">
<g><path style="opacity:1" fill="#fea800" d="M 199.5,11.5 C 206.833,11.5 214.167,11.5 221.5,11.5C 221.5,18.1667 221.5,24.8333 221.5,31.5C 214.167,31.5 206.833,31.5 199.5,31.5C 199.5,24.8333 199.5,18.1667 199.5,11.5 Z"/></g>
<g><path style="opacity:0.98" fill="#252525" d="M 38.5,37.5 C 52.9318,36.234 66.9318,38.0673 80.5,43C 82.9962,44.0804 85.3295,45.4138 87.5,47C 85.1391,53.5534 82.1391,59.7201 78.5,65.5C 64.7343,57.4211 50.401,55.9211 35.5,61C 29.3547,65.6938 29.0213,70.6938 34.5,76C 46.6736,80.1277 59.007,83.7944 71.5,87C 90.7091,95.2826 96.2091,109.116 88,128.5C 80.8978,138.806 71.0644,144.639 58.5,146C 41.804,148.217 25.804,145.883 10.5,139C 7.76443,137.638 5.4311,135.804 3.5,133.5C 6.5066,127.465 9.5066,121.465 12.5,115.5C 28.0524,126.149 44.7191,128.649 62.5,123C 67.3433,118.62 67.6767,113.954 63.5,109C 49.1439,104.46 34.8106,99.7933 20.5,95C 8.86995,88.5726 4.03662,78.7393 6,65.5C 7.47722,56.0388 12.3106,48.8722 20.5,44C 26.2986,40.9183 32.2986,38.7516 38.5,37.5 Z"/></g>
<g><path style="opacity:0.999" fill="#252525" d="M 94.5,39.5 C 125.167,39.5 155.833,39.5 186.5,39.5C 186.5,46.1667 186.5,52.8333 186.5,59.5C 175.167,59.5 163.833,59.5 152.5,59.5C 152.5,87.8333 152.5,116.167 152.5,144.5C 144.167,144.5 135.833,144.5 127.5,144.5C 127.5,116.167 127.5,87.8333 127.5,59.5C 116.5,59.5 105.5,59.5 94.5,59.5C 94.5,52.8333 94.5,46.1667 94.5,39.5 Z"/></g>
<g><path style="opacity:0.994" fill="#ffa700" d="M 198.5,39.5 C 236.833,39.5 275.167,39.5 313.5,39.5C 313.5,74.5 313.5,109.5 313.5,144.5C 281.498,144.667 249.498,144.5 217.5,144C 210.962,135.092 204.795,125.926 199,116.5C 198.5,90.8355 198.333,65.1688 198.5,39.5 Z M 222.5,61.5 C 245.5,61.5 268.5,61.5 291.5,61.5C 291.5,82.5 291.5,103.5 291.5,124.5C 271.497,124.667 251.497,124.5 231.5,124C 228.667,119.833 225.833,115.667 223,111.5C 222.5,94.8367 222.333,78.17 222.5,61.5 Z"/></g>
<g><path style="opacity:0.991" fill="#252525" d="M 326.5,39.5 C 345.836,39.3334 365.17,39.5 384.5,40C 413.177,47.1807 423.344,65.014 415,93.5C 411.026,101.307 405.193,107.307 397.5,111.5C 404.833,122.167 412.167,132.833 419.5,143.5C 410.518,144.665 401.518,144.832 392.5,144C 386.043,134.92 379.71,125.754 373.5,116.5C 366.197,115.503 358.863,115.169 351.5,115.5C 351.5,125.167 351.5,134.833 351.5,144.5C 343.167,144.5 334.833,144.5 326.5,144.5C 326.5,109.5 326.5,74.5 326.5,39.5 Z M 351.5,59.5 C 359.507,59.3336 367.507,59.5003 375.5,60C 391.224,63.2769 396.057,72.4436 390,87.5C 387.736,90.4335 384.902,92.6001 381.5,94C 371.557,95.3645 361.557,95.8645 351.5,95.5C 351.5,83.5 351.5,71.5 351.5,59.5 Z"/></g>
<g><path style="opacity:0.979" fill="#252525" d="M 461.5,81.5 C 477.325,82.4964 493.325,82.8297 509.5,82.5C 509.5,88.5 509.5,94.5 509.5,100.5C 493.325,100.17 477.325,100.504 461.5,101.5C 461.5,109.167 461.5,116.833 461.5,124.5C 480.5,124.5 499.5,124.5 518.5,124.5C 518.5,131.167 518.5,137.833 518.5,144.5C 491.167,144.5 463.833,144.5 436.5,144.5C 436.5,109.5 436.5,74.5 436.5,39.5C 463.167,39.5 489.833,39.5 516.5,39.5C 516.5,46.1667 516.5,52.8333 516.5,59.5C 498.167,59.5 479.833,59.5 461.5,59.5C 461.5,66.8333 461.5,74.1667 461.5,81.5 Z"/></g>
<g><path style="opacity:0.992" fill="#252525" d="M 537.5,39.5 C 544.508,39.3337 551.508,39.5004 558.5,40C 575.692,60.2241 592.525,80.7241 609,101.5C 609.5,80.836 609.667,60.1694 609.5,39.5C 617.833,39.5 626.167,39.5 634.5,39.5C 634.5,74.5 634.5,109.5 634.5,144.5C 627.159,144.666 619.826,144.5 612.5,144C 596.045,123.209 579.211,102.709 562,82.5C 561.5,103.164 561.333,123.831 561.5,144.5C 553.5,144.5 545.5,144.5 537.5,144.5C 537.5,109.5 537.5,74.5 537.5,39.5 Z"/></g>
<g><path style="opacity:0.455" fill="#242424" d="M 461.5,81.5 C 477.833,81.5 494.167,81.5 510.5,81.5C 510.5,88.1667 510.5,94.8333 510.5,101.5C 494.167,101.5 477.833,101.5 461.5,101.5C 477.325,100.504 493.325,100.17 509.5,100.5C 509.5,94.5 509.5,88.5 509.5,82.5C 493.325,82.8297 477.325,82.4964 461.5,81.5 Z"/></g>
</svg>
